<!-- created by svgstack.com | Attribution is required. -->

<svg
   width="800"
   height="440"
   version="1.1"
   xml:space="preserve"
   xmlns="http://www.w3.org/2000/svg"
   xmlns:svg="http://www.w3.org/2000/svg"
   aria-hidden="true"
>
   <path
      fill="#5fc8e0"
      d="m 248.03914,63.248 c 48.894,-40.388 100.43,-52 160.84,-59.778 -8.752,21.182 -13.848,44.36 -17.002,67.008 71.438,16.104 130.756,50.638 190.642,91.09 l 26.7,18.2 c 4.482,3.07 9.232,5.99 13.53,9.29 10.6,10.626 32.248,22.464 45.702,33.622 -13.632,12.26 -30.91,22.58 -43.822,34.76 -64.096,46.618 -129.996,87.69 -206.12,111.372 -9.328,2.902 -19.02,4.846 -28.218,8.11 4.856,15.422 12.33,43.686 15.174,59.608 -52.306,-5.452 -105.064,-17.352 -144.676,-53.994 -6.34,-3.994 -15.886,-4.432 -23.158,-5.614 -28.016,-6.428 -54.388,-15.59 -80.718,-27.118 -39.302,-12.152 -98.014,-63.146 -123.92,-93 -25.473,-29.356 -23.205,-35.266 0.518,-67.892 35.308,-48.56 80.228,-74.366 134.074,-98.572 21.6,-11.48 51.99,-17.634 75.458,-24.422 1.9,-0.64 3.336,-1.554 4.996,-2.67"
   />
   <path
      fill="#5fc8e0"
      d="m 156.91314,349.804 c -39.302,-12.152 -98.014,-63.146 -123.92,-93 -25.473,-29.356 -23.205,-35.266 0.518,-67.892 35.308,-48.56 80.228,-74.366 134.074,-98.572 30.116,43.118 41.456,112.222 32.49,162.69 -4.742,26.706 -24.43,77.604 -43.162,96.774"
   />
   <path
      fill="#0eb6c7"
      d="m 243.04314,65.918 c 1.904,6.538 7.302,11.866 10.684,17.678 48.784,83.86 49.086,194.854 -4.878,276.218 -3.652,5.506 -8.416,11.174 -11.218,17.108 -28.016,-6.428 -54.388,-15.59 -80.718,-27.118 18.732,-19.17 38.42,-70.068 43.162,-96.774 8.966,-50.468 -2.374,-119.572 -32.49,-162.69 21.6,-11.48 51.99,-17.634 75.458,-24.422"
   />
   <path
      fill="#799da8"
      d="m 248.03914,63.248 c 48.894,-40.388 100.43,-52 160.84,-59.778 -8.752,21.182 -13.848,44.36 -17.002,67.008 -42.37,-8.514 -82.642,-13.546 -125.662,-8.048 -4.606,0.588 -14.066,3.554 -18.176,0.818"
   />
   <path
      fill="#799da8"
      d="m 260.78914,382.536 c 9.11,-1.04 19.438,1.342 28.636,2.032 41.916,3.144 62.606,-3.452 100.11,-7.568 l 0.756,-0.078 c 4.856,15.422 12.33,43.686 15.174,59.608 -52.306,-5.452 -105.064,-17.352 -144.676,-53.994"
   />
   <path
      fill="#799da8"
      d="m 622.74914,189.058 c 25.26,-56.808 98.804,-112.536 162.462,-105.994 -18.908,30.026 -57.656,100.768 -61.862,134.786 -4.502,36.406 40.464,109.646 60.168,146.434 -63.494,3.002 -133.722,-50.234 -158.888,-106.844 12.912,-12.18 30.19,-22.5 43.822,-34.76 -13.454,-11.158 -35.102,-22.996 -45.702,-33.622"
   />
</svg>
