<!-- Uploaded to: SVG Repo, www.svgrepo.com, Generator: SVG Repo Mixer Tools -->

<svg
   height="410"
   width="800"
   version="1.1"
   viewBox="0 0 340 174.25"
   xml:space="preserve"
   xmlns="http://www.w3.org/2000/svg"
   xmlns:svg="http://www.w3.org/2000/svg"
   aria-hidden="true"
>
	<path
		fill="#802812"
		d="m 90,137.125 c 0,0 14.625,54.606 61.999,29 9.251,-5 26.001,-19 26.001,-19 z"
	/>
	<path
		fill="#802812"
		d="m 170,137.125 14,10 c 0,0 37.667,15 57.667,5 20,-10 26.333,-45 -13.667,-55 z"
	/>
	<path
		fill="#802812"
		d="m 90,37.125 c 0,0 14.625,-54.606 61.999,-29 9.251,5 26.001,19 26.001,19 z"
	/>
	<path
		fill="#802812"
		d="m 170,37.125 14,-10 c 0,0 37.667,-15 57.667,-5 20,10 26.333,45 -13.667,55 z"
	/>
	<path
		fill="#ff5023"
		d="m 270,87.125 c 0,20 -58.203,70 -130,70 C 40,157.125 5.4000001e-7,87.125 5.4000001e-7,87.125 5.4000001e-7,87.125 40,17.125 140,17.125 c 71.797,0 130,50 130,70 z"
	/>
	<path
		fill="#ff9811"
		d="M 140,157.125 C 40,157.125 5.4000001e-7,87.125 5.4000001e-7,87.125 5.4000001e-7,87.125 40,17.125 140,17.125"
	/>
	<path
		fill="#ff5023"
		d="m 310,47.125 -80,20 v 40 l 80,20 c 0,0 30,-10 30,-40 0,-30 -30,-40 -30,-40 z"
	/>
	<path
		fill="#ff9811"
		d="m 150,87.125 c 0,24.636 6.889,47.693 18.841,67.348 7.08,-1.294 13.938,-3.023 20.526,-5.087 C 177.16,131.669 170,110.219 170,87.125 170,64.031 177.16,42.581 189.367,24.865 182.778,22.8 175.92,21.072 168.841,19.778 156.889,39.432 150,62.489 150,87.125 Z"
	/>
	<path
		fill="#ffda44"
		d="M 77.392,27.544 C 70.33,30.072 63.794,32.942 57.774,36.029 71.437,48.813 80,66.983 80,87.125 c 0,20.142 -8.563,38.312 -22.226,51.095 6.02,3.087 12.556,5.958 19.618,8.485 14.059,-15.883 22.607999,-36.75 22.607999,-59.58 0,-22.83 -8.548999,-43.697 -22.607999,-59.581 z"
	/>
	<path
		fill="#ff9811"
		d="m 250,87.125 c 0,9.02 1.34,17.733 3.821,25.955 l 23.92,5.98 C 272.806,109.477 270,98.626 270,87.125 c 0,-11.501 2.806,-22.352 7.741,-31.936 l -23.92,5.98 C 251.34,69.392 250,78.105 250,87.125 Z"
	/>
</svg>
